<?xml version="1.0" encoding="utf-8" standalone="no"?>
<!DOCTYPE svg PUBLIC "-//W3C//DTD SVG 1.1//EN"
  "http://www.w3.org/Graphics/SVG/1.1/DTD/svg11.dtd">
<svg xmlns:xlink="http://www.w3.org/1999/xlink" width="432pt" height="144pt" viewBox="0 0 432 144" xmlns="http://www.w3.org/2000/svg" version="1.1">
 <metadata>
  <rdf:RDF xmlns:dc="http://purl.org/dc/elements/1.1/" xmlns:cc="http://creativecommons.org/ns#" xmlns:rdf="http://www.w3.org/1999/02/22-rdf-syntax-ns#">
   <cc:Work>
    <dc:type rdf:resource="http://purl.org/dc/dcmitype/StillImage"/>
    <dc:date>2025-08-21T09:21:35.588417</dc:date>
    <dc:format>image/svg+xml</dc:format>
    <dc:creator>
     <cc:Agent>
      <dc:title>Matplotlib v3.9.2, https://matplotlib.org/</dc:title>
     </cc:Agent>
    </dc:creator>
   </cc:Work>
  </rdf:RDF>
 </metadata>
 <defs>
  <style type="text/css">*{stroke-linejoin: round; stroke-linecap: butt}</style>
 </defs>
 <g id="figure_1">
  <g id="patch_1">
   <path d="M 0 144 
L 432 144 
L 432 0 
L 0 0 
z
" style="fill: #ffffff"/>
  </g>
  <g id="axes_1">
   <g id="patch_2">
    <path d="M 54 128.16 
L 388.8 128.16 
L 388.8 17.28 
L 54 17.28 
z
" style="fill: #ffffff"/>
   </g>
   <g id="patch_3">
    <path d="M 56.305785 128.16 
L 63.684298 128.16 
L 63.684298 122.289027 
L 56.305785 122.289027 
z
" clip-path="url(#pe7d4010b39)" style="fill: #8aff00"/>
   </g>
   <g id="patch_4">
    <path d="M 65.528926 128.16 
L 72.907438 128.16 
L 72.907438 124.816475 
L 65.528926 124.816475 
z
" clip-path="url(#pe7d4010b39)" style="fill: #8aff00"/>
   </g>
   <g id="patch_5">
    <path d="M 74.752066 128.16 
L 82.130579 128.16 
L 82.130579 128.16 
L 74.752066 128.16 
z
" clip-path="url(#pe7d4010b39)" style="fill: #8aff00"/>
   </g>
   <g id="patch_6">
    <path d="M 83.975207 128.16 
L 91.353719 128.16 
L 91.353719 124.8336 
L 83.975207 124.8336 
z
" clip-path="url(#pe7d4010b39)" style="fill: #8aff00"/>
   </g>
   <g id="patch_7">
    <path d="M 93.198347 128.16 
L 100.57686 128.16 
L 100.57686 124.795654 
L 93.198347 124.795654 
z
" clip-path="url(#pe7d4010b39)" style="fill: #8aff00"/>
   </g>
   <g id="patch_8">
    <path d="M 102.421488 128.16 
L 109.8 128.16 
L 109.8 118.4272 
L 102.421488 118.4272 
z
" clip-path="url(#pe7d4010b39)" style="fill: #8aff00"/>
   </g>
   <g id="patch_9">
    <path d="M 111.644628 128.16 
L 119.02314 128.16 
L 119.02314 124.8336 
L 111.644628 124.8336 
z
" clip-path="url(#pe7d4010b39)" style="fill: #8aff00"/>
   </g>
   <g id="patch_10">
    <path d="M 120.867769 128.16 
L 128.246281 128.16 
L 128.246281 125.610992 
L 120.867769 125.610992 
z
" clip-path="url(#pe7d4010b39)" style="fill: #8aff00"/>
   </g>
   <g id="patch_11">
    <path d="M 130.090909 128.16 
L 137.469421 128.16 
L 137.469421 93.275236 
L 130.090909 93.275236 
z
" clip-path="url(#pe7d4010b39)" style="fill: #8aff00"/>
   </g>
   <g id="patch_12">
    <path d="M 139.31405 128.16 
L 146.692562 128.16 
L 146.692562 127.1744 
L 139.31405 127.1744 
z
" clip-path="url(#pe7d4010b39)" style="fill: #8aff00"/>
   </g>
   <g id="patch_13">
    <path d="M 148.53719 128.16 
L 155.915702 128.16 
L 155.915702 128.08608 
L 148.53719 128.08608 
z
" clip-path="url(#pe7d4010b39)" style="fill: #8aff00"/>
   </g>
   <g id="patch_14">
    <path d="M 157.760331 128.16 
L 165.138843 128.16 
L 165.138843 103.429653 
L 157.760331 103.429653 
z
" clip-path="url(#pe7d4010b39)" style="fill: #8aff00"/>
   </g>
   <g id="patch_15">
    <path d="M 166.983471 128.16 
L 174.361983 128.16 
L 174.361983 99.846353 
L 166.983471 99.846353 
z
" clip-path="url(#pe7d4010b39)" style="fill: #8aff00"/>
   </g>
   <g id="patch_16">
    <path d="M 176.206612 128.16 
L 183.585124 128.16 
L 183.585124 128.16 
L 176.206612 128.16 
z
" clip-path="url(#pe7d4010b39)" style="fill: #8aff00"/>
   </g>
   <g id="patch_17">
    <path d="M 185.429752 128.16 
L 192.808264 128.16 
L 192.808264 123.873749 
L 185.429752 123.873749 
z
" clip-path="url(#pe7d4010b39)" style="fill: #8aff00"/>
   </g>
   <g id="patch_18">
    <path d="M 194.652893 128.16 
L 202.031405 128.16 
L 202.031405 115.84 
L 194.652893 115.84 
z
" clip-path="url(#pe7d4010b39)" style="fill: #8aff00"/>
   </g>
   <g id="patch_19">
    <path d="M 203.876033 128.16 
L 211.254545 128.16 
L 211.254545 122 
L 203.876033 122 
z
" clip-path="url(#pe7d4010b39)" style="fill: #8aff00"/>
   </g>
   <g id="patch_20">
    <path d="M 213.099174 128.16 
L 220.477686 128.16 
L 220.477686 102.0416 
L 213.099174 102.0416 
z
" clip-path="url(#pe7d4010b39)" style="fill: #8aff00"/>
   </g>
   <g id="patch_21">
    <path d="M 222.322314 128.16 
L 229.700826 128.16 
L 229.700826 108.437158 
L 222.322314 108.437158 
z
" clip-path="url(#pe7d4010b39)" style="fill: #8aff00"/>
   </g>
   <g id="patch_22">
    <path d="M 231.545455 128.16 
L 238.923967 128.16 
L 238.923967 102.0416 
L 231.545455 102.0416 
z
" clip-path="url(#pe7d4010b39)" style="fill: #8aff00"/>
   </g>
   <g id="patch_23">
    <path d="M 240.768595 128.16 
L 248.147107 128.16 
L 248.147107 127.1744 
L 240.768595 127.1744 
z
" clip-path="url(#pe7d4010b39)" style="fill: #8aff00"/>
   </g>
   <g id="patch_24">
    <path d="M 249.991736 128.16 
L 257.370248 128.16 
L 257.370248 93.275236 
L 249.991736 93.275236 
z
" clip-path="url(#pe7d4010b39)" style="fill: #8aff00"/>
   </g>
   <g id="patch_25">
    <path d="M 259.214876 128.16 
L 266.593388 128.16 
L 266.593388 124.915158 
L 259.214876 124.915158 
z
" clip-path="url(#pe7d4010b39)" style="fill: #8aff00"/>
   </g>
   <g id="patch_26">
    <path d="M 268.438017 128.16 
L 275.816529 128.16 
L 275.816529 124.8336 
L 268.438017 124.8336 
z
" clip-path="url(#pe7d4010b39)" style="fill: #8aff00"/>
   </g>
   <g id="patch_27">
    <path d="M 277.661157 128.16 
L 285.039669 128.16 
L 285.039669 106.2304 
L 277.661157 106.2304 
z
" clip-path="url(#pe7d4010b39)" style="fill: #8aff00"/>
   </g>
   <g id="patch_28">
    <path d="M 286.884298 128.16 
L 294.26281 128.16 
L 294.26281 108.874232 
L 286.884298 108.874232 
z
" clip-path="url(#pe7d4010b39)" style="fill: #8aff00"/>
   </g>
   <g id="patch_29">
    <path d="M 296.107438 128.16 
L 303.48595 128.16 
L 303.48595 117.069166 
L 296.107438 117.069166 
z
" clip-path="url(#pe7d4010b39)" style="fill: #8aff00"/>
   </g>
   <g id="patch_30">
    <path d="M 305.330579 128.16 
L 312.709091 128.16 
L 312.709091 116.815498 
L 305.330579 116.815498 
z
" clip-path="url(#pe7d4010b39)" style="fill: #8aff00"/>
   </g>
   <g id="patch_31">
    <path d="M 314.553719 128.16 
L 321.932231 128.16 
L 321.932231 116.642032 
L 314.553719 116.642032 
z
" clip-path="url(#pe7d4010b39)" style="fill: #8aff00"/>
   </g>
   <g id="patch_32">
    <path d="M 323.77686 128.16 
L 331.155372 128.16 
L 331.155372 116.466842 
L 323.77686 116.466842 
z
" clip-path="url(#pe7d4010b39)" style="fill: #8aff00"/>
   </g>
   <g id="patch_33">
    <path d="M 333 128.16 
L 340.378512 128.16 
L 340.378512 116.793075 
L 333 116.793075 
z
" clip-path="url(#pe7d4010b39)" style="fill: #8aff00"/>
   </g>
   <g id="patch_34">
    <path d="M 342.22314 128.16 
L 349.601653 128.16 
L 349.601653 116.543965 
L 342.22314 116.543965 
z
" clip-path="url(#pe7d4010b39)" style="fill: #8aff00"/>
   </g>
   <g id="patch_35">
    <path d="M 351.446281 128.16 
L 358.824793 128.16 
L 358.824793 125.08 
L 351.446281 125.08 
z
" clip-path="url(#pe7d4010b39)" style="fill: #8aff00"/>
   </g>
   <g id="patch_36">
    <path d="M 360.669421 128.16 
L 368.047934 128.16 
L 368.047934 121.0144 
L 360.669421 121.0144 
z
" clip-path="url(#pe7d4010b39)" style="fill: #8aff00"/>
   </g>
   <g id="patch_37">
    <path d="M 369.892562 128.16 
L 377.271074 128.16 
L 377.271074 125.08 
L 369.892562 125.08 
z
" clip-path="url(#pe7d4010b39)" style="fill: #8aff00"/>
   </g>
   <g id="patch_38">
    <path d="M 379.115702 128.16 
L 386.494215 128.16 
L 386.494215 120.6448 
L 379.115702 120.6448 
z
" clip-path="url(#pe7d4010b39)" style="fill: #8aff00"/>
   </g>
   <g id="patch_39">
    <path d="M 56.305785 122.289027 
L 63.684298 122.289027 
L 63.684298 99.764248 
L 56.305785 99.764248 
z
" clip-path="url(#pe7d4010b39)" style="fill: #ab5cf2"/>
   </g>
   <g id="patch_40">
    <path d="M 65.528926 128.16 
L 72.907438 128.16 
L 72.907438 128.16 
L 65.528926 128.16 
z
" clip-path="url(#pe7d4010b39)" style="fill: #ab5cf2"/>
   </g>
   <g id="patch_41">
    <path d="M 74.752066 128.16 
L 82.130579 128.16 
L 82.130579 128.16 
L 74.752066 128.16 
z
" clip-path="url(#pe7d4010b39)" style="fill: #ab5cf2"/>
   </g>
   <g id="patch_42">
    <path d="M 83.975207 124.8336 
L 91.353719 124.8336 
L 91.353719 77.2784 
L 83.975207 77.2784 
z
" clip-path="url(#pe7d4010b39)" style="fill: #ab5cf2"/>
   </g>
   <g id="patch_43">
    <path d="M 93.198347 128.16 
L 100.57686 128.16 
L 100.57686 128.16 
L 93.198347 128.16 
z
" clip-path="url(#pe7d4010b39)" style="fill: #ab5cf2"/>
   </g>
   <g id="patch_44">
    <path d="M 102.421488 118.4272 
L 109.8 118.4272 
L 109.8 112.2672 
L 102.421488 112.2672 
z
" clip-path="url(#pe7d4010b39)" style="fill: #ab5cf2"/>
   </g>
   <g id="patch_45">
    <path d="M 111.644628 124.8336 
L 119.02314 124.8336 
L 119.02314 93.955536 
L 111.644628 93.955536 
z
" clip-path="url(#pe7d4010b39)" style="fill: #ab5cf2"/>
   </g>
   <g id="patch_46">
    <path d="M 120.867769 128.16 
L 128.246281 128.16 
L 128.246281 128.16 
L 120.867769 128.16 
z
" clip-path="url(#pe7d4010b39)" style="fill: #ab5cf2"/>
   </g>
   <g id="patch_47">
    <path d="M 130.090909 128.16 
L 137.469421 128.16 
L 137.469421 128.16 
L 130.090909 128.16 
z
" clip-path="url(#pe7d4010b39)" style="fill: #ab5cf2"/>
   </g>
   <g id="patch_48">
    <path d="M 139.31405 128.16 
L 146.692562 128.16 
L 146.692562 128.16 
L 139.31405 128.16 
z
" clip-path="url(#pe7d4010b39)" style="fill: #ab5cf2"/>
   </g>
   <g id="patch_49">
    <path d="M 148.53719 128.16 
L 155.915702 128.16 
L 155.915702 128.16 
L 148.53719 128.16 
z
" clip-path="url(#pe7d4010b39)" style="fill: #ab5cf2"/>
   </g>
   <g id="patch_50">
    <path d="M 157.760331 128.16 
L 165.138843 128.16 
L 165.138843 128.16 
L 157.760331 128.16 
z
" clip-path="url(#pe7d4010b39)" style="fill: #ab5cf2"/>
   </g>
   <g id="patch_51">
    <path d="M 166.983471 128.16 
L 174.361983 128.16 
L 174.361983 128.16 
L 166.983471 128.16 
z
" clip-path="url(#pe7d4010b39)" style="fill: #ab5cf2"/>
   </g>
   <g id="patch_52">
    <path d="M 176.206612 128.16 
L 183.585124 128.16 
L 183.585124 128.16 
L 176.206612 128.16 
z
" clip-path="url(#pe7d4010b39)" style="fill: #ab5cf2"/>
   </g>
   <g id="patch_53">
    <path d="M 185.429752 123.873749 
L 192.808264 123.873749 
L 192.808264 100.98553 
L 185.429752 100.98553 
z
" clip-path="url(#pe7d4010b39)" style="fill: #ab5cf2"/>
   </g>
   <g id="patch_54">
    <path d="M 194.652893 115.84 
L 202.031405 115.84 
L 202.031405 54.24 
L 194.652893 54.24 
z
" clip-path="url(#pe7d4010b39)" style="fill: #ab5cf2"/>
   </g>
   <g id="patch_55">
    <path d="M 203.876033 122 
L 211.254545 122 
L 211.254545 121.3224 
L 203.876033 121.3224 
z
" clip-path="url(#pe7d4010b39)" style="fill: #ab5cf2"/>
   </g>
   <g id="patch_56">
    <path d="M 213.099174 128.16 
L 220.477686 128.16 
L 220.477686 128.16 
L 213.099174 128.16 
z
" clip-path="url(#pe7d4010b39)" style="fill: #ab5cf2"/>
   </g>
   <g id="patch_57">
    <path d="M 222.322314 108.437158 
L 229.700826 108.437158 
L 229.700826 102.41773 
L 222.322314 102.41773 
z
" clip-path="url(#pe7d4010b39)" style="fill: #ab5cf2"/>
   </g>
   <g id="patch_58">
    <path d="M 231.545455 128.16 
L 238.923967 128.16 
L 238.923967 128.16 
L 231.545455 128.16 
z
" clip-path="url(#pe7d4010b39)" style="fill: #ab5cf2"/>
   </g>
   <g id="patch_59">
    <path d="M 240.768595 128.16 
L 248.147107 128.16 
L 248.147107 128.16 
L 240.768595 128.16 
z
" clip-path="url(#pe7d4010b39)" style="fill: #ab5cf2"/>
   </g>
   <g id="patch_60">
    <path d="M 249.991736 128.16 
L 257.370248 128.16 
L 257.370248 128.16 
L 249.991736 128.16 
z
" clip-path="url(#pe7d4010b39)" style="fill: #ab5cf2"/>
   </g>
   <g id="patch_61">
    <path d="M 259.214876 128.16 
L 266.593388 128.16 
L 266.593388 128.16 
L 259.214876 128.16 
z
" clip-path="url(#pe7d4010b39)" style="fill: #ab5cf2"/>
   </g>
   <g id="patch_62">
    <path d="M 268.438017 124.8336 
L 275.816529 124.8336 
L 275.816529 77.2784 
L 268.438017 77.2784 
z
" clip-path="url(#pe7d4010b39)" style="fill: #ab5cf2"/>
   </g>
   <g id="patch_63">
    <path d="M 277.661157 106.2304 
L 285.039669 106.2304 
L 285.039669 93.5408 
L 277.661157 93.5408 
z
" clip-path="url(#pe7d4010b39)" style="fill: #ab5cf2"/>
   </g>
   <g id="patch_64">
    <path d="M 286.884298 108.874232 
L 294.26281 108.874232 
L 294.26281 102.220439 
L 286.884298 102.220439 
z
" clip-path="url(#pe7d4010b39)" style="fill: #ab5cf2"/>
   </g>
   <g id="patch_65">
    <path d="M 296.107438 117.069166 
L 303.48595 117.069166 
L 303.48595 101.423752 
L 296.107438 101.423752 
z
" clip-path="url(#pe7d4010b39)" style="fill: #ab5cf2"/>
   </g>
   <g id="patch_66">
    <path d="M 305.330579 116.815498 
L 312.709091 116.815498 
L 312.709091 101.836718 
L 305.330579 101.836718 
z
" clip-path="url(#pe7d4010b39)" style="fill: #ab5cf2"/>
   </g>
   <g id="patch_67">
    <path d="M 314.553719 116.642032 
L 321.932231 116.642032 
L 321.932231 100.884875 
L 314.553719 100.884875 
z
" clip-path="url(#pe7d4010b39)" style="fill: #ab5cf2"/>
   </g>
   <g id="patch_68">
    <path d="M 323.77686 116.466842 
L 331.155372 116.466842 
L 331.155372 102.107142 
L 323.77686 102.107142 
z
" clip-path="url(#pe7d4010b39)" style="fill: #ab5cf2"/>
   </g>
   <g id="patch_69">
    <path d="M 333 116.793075 
L 340.378512 116.793075 
L 340.378512 100.946475 
L 333 100.946475 
z
" clip-path="url(#pe7d4010b39)" style="fill: #ab5cf2"/>
   </g>
   <g id="patch_70">
    <path d="M 342.22314 116.543965 
L 349.601653 116.543965 
L 349.601653 101.739514 
L 342.22314 101.739514 
z
" clip-path="url(#pe7d4010b39)" style="fill: #ab5cf2"/>
   </g>
   <g id="patch_71">
    <path d="M 351.446281 128.16 
L 358.824793 128.16 
L 358.824793 128.16 
L 351.446281 128.16 
z
" clip-path="url(#pe7d4010b39)" style="fill: #ab5cf2"/>
   </g>
   <g id="patch_72">
    <path d="M 360.669421 128.16 
L 368.047934 128.16 
L 368.047934 128.16 
L 360.669421 128.16 
z
" clip-path="url(#pe7d4010b39)" style="fill: #ab5cf2"/>
   </g>
   <g id="patch_73">
    <path d="M 369.892562 128.16 
L 377.271074 128.16 
L 377.271074 128.16 
L 369.892562 128.16 
z
" clip-path="url(#pe7d4010b39)" style="fill: #ab5cf2"/>
   </g>
   <g id="patch_74">
    <path d="M 379.115702 128.16 
L 386.494215 128.16 
L 386.494215 128.16 
L 379.115702 128.16 
z
" clip-path="url(#pe7d4010b39)" style="fill: #ab5cf2"/>
   </g>
   <g id="patch_75">
    <path d="M 56.305785 99.764248 
L 63.684298 99.764248 
L 63.684298 99.641048 
L 56.305785 99.641048 
z
" clip-path="url(#pe7d4010b39)" style="fill: #daa520"/>
   </g>
   <g id="patch_76">
    <path d="M 65.528926 128.16 
L 72.907438 128.16 
L 72.907438 128.16 
L 65.528926 128.16 
z
" clip-path="url(#pe7d4010b39)" style="fill: #daa520"/>
   </g>
   <g id="patch_77">
    <path d="M 74.752066 128.16 
L 82.130579 128.16 
L 82.130579 128.16 
L 74.752066 128.16 
z
" clip-path="url(#pe7d4010b39)" style="fill: #daa520"/>
   </g>
   <g id="patch_78">
    <path d="M 83.975207 77.2784 
L 91.353719 77.2784 
L 91.353719 70.6256 
L 83.975207 70.6256 
z
" clip-path="url(#pe7d4010b39)" style="fill: #daa520"/>
   </g>
   <g id="patch_79">
    <path d="M 93.198347 128.16 
L 100.57686 128.16 
L 100.57686 128.16 
L 93.198347 128.16 
z
" clip-path="url(#pe7d4010b39)" style="fill: #daa520"/>
   </g>
   <g id="patch_80">
    <path d="M 102.421488 112.2672 
L 109.8 112.2672 
L 109.8 112.144 
L 102.421488 112.144 
z
" clip-path="url(#pe7d4010b39)" style="fill: #daa520"/>
   </g>
   <g id="patch_81">
    <path d="M 111.644628 93.955536 
L 119.02314 93.955536 
L 119.02314 93.822717 
L 111.644628 93.822717 
z
" clip-path="url(#pe7d4010b39)" style="fill: #daa520"/>
   </g>
   <g id="patch_82">
    <path d="M 120.867769 128.16 
L 128.246281 128.16 
L 128.246281 128.16 
L 120.867769 128.16 
z
" clip-path="url(#pe7d4010b39)" style="fill: #daa520"/>
   </g>
   <g id="patch_83">
    <path d="M 130.090909 93.275236 
L 137.469421 93.275236 
L 137.469421 68.698204 
L 130.090909 68.698204 
z
" clip-path="url(#pe7d4010b39)" style="fill: #daa520"/>
   </g>
   <g id="patch_84">
    <path d="M 139.31405 128.16 
L 146.692562 128.16 
L 146.692562 128.16 
L 139.31405 128.16 
z
" clip-path="url(#pe7d4010b39)" style="fill: #daa520"/>
   </g>
   <g id="patch_85">
    <path d="M 148.53719 128.16 
L 155.915702 128.16 
L 155.915702 128.16 
L 148.53719 128.16 
z
" clip-path="url(#pe7d4010b39)" style="fill: #daa520"/>
   </g>
   <g id="patch_86">
    <path d="M 157.760331 128.16 
L 165.138843 128.16 
L 165.138843 128.16 
L 157.760331 128.16 
z
" clip-path="url(#pe7d4010b39)" style="fill: #daa520"/>
   </g>
   <g id="patch_87">
    <path d="M 166.983471 99.846353 
L 174.361983 99.846353 
L 174.361983 98.301674 
L 166.983471 98.301674 
z
" clip-path="url(#pe7d4010b39)" style="fill: #daa520"/>
   </g>
   <g id="patch_88">
    <path d="M 176.206612 128.16 
L 183.585124 128.16 
L 183.585124 128.16 
L 176.206612 128.16 
z
" clip-path="url(#pe7d4010b39)" style="fill: #daa520"/>
   </g>
   <g id="patch_89">
    <path d="M 185.429752 100.98553 
L 192.808264 100.98553 
L 192.808264 100.976659 
L 185.429752 100.976659 
z
" clip-path="url(#pe7d4010b39)" style="fill: #daa520"/>
   </g>
   <g id="patch_90">
    <path d="M 194.652893 54.24 
L 202.031405 54.24 
L 202.031405 29.6 
L 194.652893 29.6 
z
" clip-path="url(#pe7d4010b39)" style="fill: #daa520"/>
   </g>
   <g id="patch_91">
    <path d="M 203.876033 128.16 
L 211.254545 128.16 
L 211.254545 128.16 
L 203.876033 128.16 
z
" clip-path="url(#pe7d4010b39)" style="fill: #daa520"/>
   </g>
   <g id="patch_92">
    <path d="M 213.099174 102.0416 
L 220.477686 102.0416 
L 220.477686 97.4832 
L 213.099174 97.4832 
z
" clip-path="url(#pe7d4010b39)" style="fill: #daa520"/>
   </g>
   <g id="patch_93">
    <path d="M 222.322314 102.41773 
L 229.700826 102.41773 
L 229.700826 101.619147 
L 222.322314 101.619147 
z
" clip-path="url(#pe7d4010b39)" style="fill: #daa520"/>
   </g>
   <g id="patch_94">
    <path d="M 231.545455 102.0416 
L 238.923967 102.0416 
L 238.923967 97.4832 
L 231.545455 97.4832 
z
" clip-path="url(#pe7d4010b39)" style="fill: #daa520"/>
   </g>
   <g id="patch_95">
    <path d="M 240.768595 128.16 
L 248.147107 128.16 
L 248.147107 128.16 
L 240.768595 128.16 
z
" clip-path="url(#pe7d4010b39)" style="fill: #daa520"/>
   </g>
   <g id="patch_96">
    <path d="M 249.991736 93.275236 
L 257.370248 93.275236 
L 257.370248 68.698204 
L 249.991736 68.698204 
z
" clip-path="url(#pe7d4010b39)" style="fill: #daa520"/>
   </g>
   <g id="patch_97">
    <path d="M 259.214876 128.16 
L 266.593388 128.16 
L 266.593388 128.16 
L 259.214876 128.16 
z
" clip-path="url(#pe7d4010b39)" style="fill: #daa520"/>
   </g>
   <g id="patch_98">
    <path d="M 268.438017 77.2784 
L 275.816529 77.2784 
L 275.816529 70.6256 
L 268.438017 70.6256 
z
" clip-path="url(#pe7d4010b39)" style="fill: #daa520"/>
   </g>
   <g id="patch_99">
    <path d="M 277.661157 93.5408 
L 285.039669 93.5408 
L 285.039669 84.5472 
L 277.661157 84.5472 
z
" clip-path="url(#pe7d4010b39)" style="fill: #daa520"/>
   </g>
   <g id="patch_100">
    <path d="M 286.884298 102.220439 
L 294.26281 102.220439 
L 294.26281 101.37021 
L 286.884298 101.37021 
z
" clip-path="url(#pe7d4010b39)" style="fill: #daa520"/>
   </g>
   <g id="patch_101">
    <path d="M 296.107438 128.16 
L 303.48595 128.16 
L 303.48595 128.16 
L 296.107438 128.16 
z
" clip-path="url(#pe7d4010b39)" style="fill: #daa520"/>
   </g>
   <g id="patch_102">
    <path d="M 305.330579 128.16 
L 312.709091 128.16 
L 312.709091 128.16 
L 305.330579 128.16 
z
" clip-path="url(#pe7d4010b39)" style="fill: #daa520"/>
   </g>
   <g id="patch_103">
    <path d="M 314.553719 128.16 
L 321.932231 128.16 
L 321.932231 128.16 
L 314.553719 128.16 
z
" clip-path="url(#pe7d4010b39)" style="fill: #daa520"/>
   </g>
   <g id="patch_104">
    <path d="M 323.77686 128.16 
L 331.155372 128.16 
L 331.155372 128.16 
L 323.77686 128.16 
z
" clip-path="url(#pe7d4010b39)" style="fill: #daa520"/>
   </g>
   <g id="patch_105">
    <path d="M 333 128.16 
L 340.378512 128.16 
L 340.378512 128.16 
L 333 128.16 
z
" clip-path="url(#pe7d4010b39)" style="fill: #daa520"/>
   </g>
   <g id="patch_106">
    <path d="M 342.22314 128.16 
L 349.601653 128.16 
L 349.601653 128.16 
L 342.22314 128.16 
z
" clip-path="url(#pe7d4010b39)" style="fill: #daa520"/>
   </g>
   <g id="patch_107">
    <path d="M 351.446281 128.16 
L 358.824793 128.16 
L 358.824793 128.16 
L 351.446281 128.16 
z
" clip-path="url(#pe7d4010b39)" style="fill: #daa520"/>
   </g>
   <g id="patch_108">
    <path d="M 360.669421 128.16 
L 368.047934 128.16 
L 368.047934 128.16 
L 360.669421 128.16 
z
" clip-path="url(#pe7d4010b39)" style="fill: #daa520"/>
   </g>
   <g id="patch_109">
    <path d="M 369.892562 128.16 
L 377.271074 128.16 
L 377.271074 128.16 
L 369.892562 128.16 
z
" clip-path="url(#pe7d4010b39)" style="fill: #daa520"/>
   </g>
   <g id="patch_110">
    <path d="M 379.115702 128.16 
L 386.494215 128.16 
L 386.494215 128.16 
L 379.115702 128.16 
z
" clip-path="url(#pe7d4010b39)" style="fill: #daa520"/>
   </g>
   <g id="patch_111">
    <path d="M 56.305785 128.16 
L 63.684298 128.16 
L 63.684298 128.16 
L 56.305785 128.16 
z
" clip-path="url(#pe7d4010b39)" style="fill: #57178f"/>
   </g>
   <g id="patch_112">
    <path d="M 65.528926 128.16 
L 72.907438 128.16 
L 72.907438 128.16 
L 65.528926 128.16 
z
" clip-path="url(#pe7d4010b39)" style="fill: #57178f"/>
   </g>
   <g id="patch_113">
    <path d="M 74.752066 128.16 
L 82.130579 128.16 
L 82.130579 128.16 
L 74.752066 128.16 
z
" clip-path="url(#pe7d4010b39)" style="fill: #57178f"/>
   </g>
   <g id="patch_114">
    <path d="M 83.975207 128.16 
L 91.353719 128.16 
L 91.353719 128.16 
L 83.975207 128.16 
z
" clip-path="url(#pe7d4010b39)" style="fill: #57178f"/>
   </g>
   <g id="patch_115">
    <path d="M 93.198347 128.16 
L 100.57686 128.16 
L 100.57686 128.16 
L 93.198347 128.16 
z
" clip-path="url(#pe7d4010b39)" style="fill: #57178f"/>
   </g>
   <g id="patch_116">
    <path d="M 102.421488 128.16 
L 109.8 128.16 
L 109.8 128.16 
L 102.421488 128.16 
z
" clip-path="url(#pe7d4010b39)" style="fill: #57178f"/>
   </g>
   <g id="patch_117">
    <path d="M 111.644628 128.16 
L 119.02314 128.16 
L 119.02314 128.16 
L 111.644628 128.16 
z
" clip-path="url(#pe7d4010b39)" style="fill: #57178f"/>
   </g>
   <g id="patch_118">
    <path d="M 120.867769 128.16 
L 128.246281 128.16 
L 128.246281 128.16 
L 120.867769 128.16 
z
" clip-path="url(#pe7d4010b39)" style="fill: #57178f"/>
   </g>
   <g id="patch_119">
    <path d="M 130.090909 68.698204 
L 137.469421 68.698204 
L 137.469421 67.044587 
L 130.090909 67.044587 
z
" clip-path="url(#pe7d4010b39)" style="fill: #57178f"/>
   </g>
   <g id="patch_120">
    <path d="M 139.31405 128.16 
L 146.692562 128.16 
L 146.692562 128.16 
L 139.31405 128.16 
z
" clip-path="url(#pe7d4010b39)" style="fill: #57178f"/>
   </g>
   <g id="patch_121">
    <path d="M 148.53719 128.16 
L 155.915702 128.16 
L 155.915702 128.16 
L 148.53719 128.16 
z
" clip-path="url(#pe7d4010b39)" style="fill: #57178f"/>
   </g>
   <g id="patch_122">
    <path d="M 157.760331 128.16 
L 165.138843 128.16 
L 165.138843 128.16 
L 157.760331 128.16 
z
" clip-path="url(#pe7d4010b39)" style="fill: #57178f"/>
   </g>
   <g id="patch_123">
    <path d="M 166.983471 128.16 
L 174.361983 128.16 
L 174.361983 128.16 
L 166.983471 128.16 
z
" clip-path="url(#pe7d4010b39)" style="fill: #57178f"/>
   </g>
   <g id="patch_124">
    <path d="M 176.206612 128.16 
L 183.585124 128.16 
L 183.585124 128.16 
L 176.206612 128.16 
z
" clip-path="url(#pe7d4010b39)" style="fill: #57178f"/>
   </g>
   <g id="patch_125">
    <path d="M 185.429752 128.16 
L 192.808264 128.16 
L 192.808264 128.16 
L 185.429752 128.16 
z
" clip-path="url(#pe7d4010b39)" style="fill: #57178f"/>
   </g>
   <g id="patch_126">
    <path d="M 194.652893 128.16 
L 202.031405 128.16 
L 202.031405 128.16 
L 194.652893 128.16 
z
" clip-path="url(#pe7d4010b39)" style="fill: #57178f"/>
   </g>
   <g id="patch_127">
    <path d="M 203.876033 128.16 
L 211.254545 128.16 
L 211.254545 128.16 
L 203.876033 128.16 
z
" clip-path="url(#pe7d4010b39)" style="fill: #57178f"/>
   </g>
   <g id="patch_128">
    <path d="M 213.099174 128.16 
L 220.477686 128.16 
L 220.477686 128.16 
L 213.099174 128.16 
z
" clip-path="url(#pe7d4010b39)" style="fill: #57178f"/>
   </g>
   <g id="patch_129">
    <path d="M 222.322314 128.16 
L 229.700826 128.16 
L 229.700826 128.16 
L 222.322314 128.16 
z
" clip-path="url(#pe7d4010b39)" style="fill: #57178f"/>
   </g>
   <g id="patch_130">
    <path d="M 231.545455 128.16 
L 238.923967 128.16 
L 238.923967 128.16 
L 231.545455 128.16 
z
" clip-path="url(#pe7d4010b39)" style="fill: #57178f"/>
   </g>
   <g id="patch_131">
    <path d="M 240.768595 128.16 
L 248.147107 128.16 
L 248.147107 128.16 
L 240.768595 128.16 
z
" clip-path="url(#pe7d4010b39)" style="fill: #57178f"/>
   </g>
   <g id="patch_132">
    <path d="M 249.991736 68.698204 
L 257.370248 68.698204 
L 257.370248 67.044587 
L 249.991736 67.044587 
z
" clip-path="url(#pe7d4010b39)" style="fill: #57178f"/>
   </g>
   <g id="patch_133">
    <path d="M 259.214876 128.16 
L 266.593388 128.16 
L 266.593388 128.16 
L 259.214876 128.16 
z
" clip-path="url(#pe7d4010b39)" style="fill: #57178f"/>
   </g>
   <g id="patch_134">
    <path d="M 268.438017 128.16 
L 275.816529 128.16 
L 275.816529 128.16 
L 268.438017 128.16 
z
" clip-path="url(#pe7d4010b39)" style="fill: #57178f"/>
   </g>
   <g id="patch_135">
    <path d="M 277.661157 128.16 
L 285.039669 128.16 
L 285.039669 128.16 
L 277.661157 128.16 
z
" clip-path="url(#pe7d4010b39)" style="fill: #57178f"/>
   </g>
   <g id="patch_136">
    <path d="M 286.884298 128.16 
L 294.26281 128.16 
L 294.26281 128.16 
L 286.884298 128.16 
z
" clip-path="url(#pe7d4010b39)" style="fill: #57178f"/>
   </g>
   <g id="patch_137">
    <path d="M 296.107438 128.16 
L 303.48595 128.16 
L 303.48595 128.16 
L 296.107438 128.16 
z
" clip-path="url(#pe7d4010b39)" style="fill: #57178f"/>
   </g>
   <g id="patch_138">
    <path d="M 305.330579 128.16 
L 312.709091 128.16 
L 312.709091 128.16 
L 305.330579 128.16 
z
" clip-path="url(#pe7d4010b39)" style="fill: #57178f"/>
   </g>
   <g id="patch_139">
    <path d="M 314.553719 128.16 
L 321.932231 128.16 
L 321.932231 128.16 
L 314.553719 128.16 
z
" clip-path="url(#pe7d4010b39)" style="fill: #57178f"/>
   </g>
   <g id="patch_140">
    <path d="M 323.77686 128.16 
L 331.155372 128.16 
L 331.155372 128.16 
L 323.77686 128.16 
z
" clip-path="url(#pe7d4010b39)" style="fill: #57178f"/>
   </g>
   <g id="patch_141">
    <path d="M 333 128.16 
L 340.378512 128.16 
L 340.378512 128.16 
L 333 128.16 
z
" clip-path="url(#pe7d4010b39)" style="fill: #57178f"/>
   </g>
   <g id="patch_142">
    <path d="M 342.22314 128.16 
L 349.601653 128.16 
L 349.601653 128.16 
L 342.22314 128.16 
z
" clip-path="url(#pe7d4010b39)" style="fill: #57178f"/>
   </g>
   <g id="patch_143">
    <path d="M 351.446281 128.16 
L 358.824793 128.16 
L 358.824793 128.16 
L 351.446281 128.16 
z
" clip-path="url(#pe7d4010b39)" style="fill: #57178f"/>
   </g>
   <g id="patch_144">
    <path d="M 360.669421 128.16 
L 368.047934 128.16 
L 368.047934 128.16 
L 360.669421 128.16 
z
" clip-path="url(#pe7d4010b39)" style="fill: #57178f"/>
   </g>
   <g id="patch_145">
    <path d="M 369.892562 128.16 
L 377.271074 128.16 
L 377.271074 128.16 
L 369.892562 128.16 
z
" clip-path="url(#pe7d4010b39)" style="fill: #57178f"/>
   </g>
   <g id="patch_146">
    <path d="M 379.115702 128.16 
L 386.494215 128.16 
L 386.494215 128.16 
L 379.115702 128.16 
z
" clip-path="url(#pe7d4010b39)" style="fill: #57178f"/>
   </g>
   <g id="matplotlib.axis_1">
    <g id="xtick_1">
     <g id="line2d_1">
      <defs>
       <path id="mf6fa6c9695" d="M 0 0 
L 0 3.5 
" style="stroke: #000000; stroke-width: 0.8"/>
      </defs>
      <g>
       <use xlink:href="#mf6fa6c9695" x="59.995041" y="128.16" style="stroke: #000000; stroke-width: 0.8"/>
      </g>
     </g>
     <g id="text_1">
      <text style="font: 6px 'Arial', sans-serif" transform="translate(61.547541 186.4075) rotate(-90)">RNA_Dojo - TS006</text>
     </g>
    </g>
    <g id="xtick_2">
     <g id="line2d_2">
      <g>
       <use xlink:href="#mf6fa6c9695" x="69.218182" y="128.16" style="stroke: #000000; stroke-width: 0.8"/>
      </g>
     </g>
     <g id="text_2">
      <text style="font: 6px 'Arial', sans-serif" transform="translate(70.769276 184.064687) rotate(-90)">NKRNA-s - TS028</text>
     </g>
    </g>
    <g id="xtick_3">
     <g id="line2d_3">
      <g>
       <use xlink:href="#mf6fa6c9695" x="78.441322" y="128.16" style="stroke: #000000; stroke-width: 0.8"/>
      </g>
     </g>
     <g id="text_3">
      <text style="font: 6px 'Arial', sans-serif" transform="translate(79.993822 191.30125) rotate(-90)">Yang-Server - TS052</text>
     </g>
    </g>
    <g id="xtick_4">
     <g id="line2d_4">
      <g>
       <use xlink:href="#mf6fa6c9695" x="87.664463" y="128.16" style="stroke: #000000; stroke-width: 0.8"/>
      </g>
     </g>
     <g id="text_4">
      <text style="font: 6px 'Arial', sans-serif" transform="translate(89.216963 177.409375) rotate(-90)">coogs2 - TS077</text>
     </g>
    </g>
    <g id="xtick_5">
     <g id="line2d_5">
      <g>
       <use xlink:href="#mf6fa6c9695" x="96.887603" y="128.16" style="stroke: #000000; stroke-width: 0.8"/>
      </g>
     </g>
     <g id="text_5">
      <text style="font: 6px 'Arial', sans-serif" transform="translate(98.438697 213.633438) rotate(-90)">MIEnsembles-Server - TS110</text>
     </g>
    </g>
    <g id="xtick_6">
     <g id="line2d_6">
      <g>
       <use xlink:href="#mf6fa6c9695" x="106.110744" y="128.16" style="stroke: #000000; stroke-width: 0.8"/>
      </g>
     </g>
     <g id="text_6">
      <text style="font: 6px 'Arial', sans-serif" transform="translate(107.663244 203.31625) rotate(-90)">Pascal_Auffinger - TS121</text>
     </g>
    </g>
    <g id="xtick_7">
     <g id="line2d_7">
      <g>
       <use xlink:href="#mf6fa6c9695" x="115.333884" y="128.16" style="stroke: #000000; stroke-width: 0.8"/>
      </g>
     </g>
     <g id="text_7">
      <text style="font: 6px 'Arial', sans-serif" transform="translate(116.921541 202.749063) rotate(-90)">DeepFold-refine  - TS139</text>
     </g>
    </g>
    <g id="xtick_8">
     <g id="line2d_8">
      <g>
       <use xlink:href="#mf6fa6c9695" x="124.557025" y="128.16" style="stroke: #000000; stroke-width: 0.8"/>
      </g>
     </g>
     <g id="text_8">
      <text style="font: 6px 'Arial', sans-serif" transform="translate(126.108119 189.416875) rotate(-90)">SoutheRNA - TS156</text>
     </g>
    </g>
    <g id="xtick_9">
     <g id="line2d_9">
      <g>
       <use xlink:href="#mf6fa6c9695" x="133.780165" y="128.16" style="stroke: #000000; stroke-width: 0.8"/>
      </g>
     </g>
     <g id="text_9">
      <text style="font: 6px 'Arial', sans-serif" transform="translate(135.369697 196.413437) rotate(-90)">OpenComplex - TS167</text>
     </g>
    </g>
    <g id="xtick_10">
     <g id="line2d_10">
      <g>
       <use xlink:href="#mf6fa6c9695" x="143.003306" y="128.16" style="stroke: #000000; stroke-width: 0.8"/>
      </g>
     </g>
     <g id="text_10">
      <text style="font: 6px 'Arial', sans-serif" transform="translate(144.555806 222.09625) rotate(-90)">GuangzhouRNA-human - TS183</text>
     </g>
    </g>
    <g id="xtick_11">
     <g id="line2d_11">
      <g>
       <use xlink:href="#mf6fa6c9695" x="152.226446" y="128.16" style="stroke: #000000; stroke-width: 0.8"/>
      </g>
     </g>
     <g id="text_11">
      <text style="font: 6px 'Arial', sans-serif" transform="translate(153.77754 174.404687) rotate(-90)">LCBio - TS189</text>
     </g>
    </g>
    <g id="xtick_12">
     <g id="line2d_12">
      <g>
       <use xlink:href="#mf6fa6c9695" x="161.449587" y="128.16" style="stroke: #000000; stroke-width: 0.8"/>
      </g>
     </g>
     <g id="text_12">
      <text style="font: 6px 'Arial', sans-serif" transform="translate(163.000681 159.73) rotate(-90)">  - TS234</text>
     </g>
    </g>
    <g id="xtick_13">
     <g id="line2d_13">
      <g>
       <use xlink:href="#mf6fa6c9695" x="170.672727" y="128.16" style="stroke: #000000; stroke-width: 0.8"/>
      </g>
     </g>
     <g id="text_13">
      <text style="font: 6px 'Arial', sans-serif" transform="translate(172.223821 180.409375) rotate(-90)">elofsson - TS241</text>
     </g>
    </g>
    <g id="xtick_14">
     <g id="line2d_14">
      <g>
       <use xlink:href="#mf6fa6c9695" x="179.895868" y="128.16" style="stroke: #000000; stroke-width: 0.8"/>
      </g>
     </g>
     <g id="text_14">
      <text style="font: 6px 'Arial', sans-serif" transform="translate(181.446962 191.078125) rotate(-90)">GromihaLab - TS272</text>
     </g>
    </g>
    <g id="xtick_15">
     <g id="line2d_15">
      <g>
       <use xlink:href="#mf6fa6c9695" x="189.119008" y="128.16" style="stroke: #000000; stroke-width: 0.8"/>
      </g>
     </g>
     <g id="text_15">
      <text style="font: 6px 'Arial', sans-serif" transform="translate(190.670102 185.415625) rotate(-90)">KiharaLab - TS294</text>
     </g>
    </g>
    <g id="xtick_16">
     <g id="line2d_16">
      <g>
       <use xlink:href="#mf6fa6c9695" x="198.342149" y="128.16" style="stroke: #000000; stroke-width: 0.8"/>
      </g>
     </g>
     <g id="text_16">
      <text style="font: 6px 'Arial', sans-serif" transform="translate(199.893243 187.733125) rotate(-90)">AF3-server - TS304</text>
     </g>
    </g>
    <g id="xtick_17">
     <g id="line2d_17">
      <g>
       <use xlink:href="#mf6fa6c9695" x="207.565289" y="128.16" style="stroke: #000000; stroke-width: 0.8"/>
      </g>
     </g>
     <g id="text_17">
      <text style="font: 6px 'Arial', sans-serif" transform="translate(209.116383 187.077812) rotate(-90)">GeneSilico - TS338</text>
     </g>
    </g>
    <g id="xtick_18">
     <g id="line2d_18">
      <g>
       <use xlink:href="#mf6fa6c9695" x="216.78843" y="128.16" style="stroke: #000000; stroke-width: 0.8"/>
      </g>
     </g>
     <g id="text_18">
      <text style="font: 6px 'Arial', sans-serif" transform="translate(218.339524 196.081563) rotate(-90)">cheatham-lab  - TS349</text>
     </g>
    </g>
    <g id="xtick_19">
     <g id="line2d_19">
      <g>
       <use xlink:href="#mf6fa6c9695" x="226.01157" y="128.16" style="stroke: #000000; stroke-width: 0.8"/>
      </g>
     </g>
     <g id="text_19">
      <text style="font: 6px 'Arial', sans-serif" transform="translate(227.599226 199.752813) rotate(-90)">bussilab_replex - TS391</text>
     </g>
    </g>
    <g id="xtick_20">
     <g id="line2d_20">
      <g>
       <use xlink:href="#mf6fa6c9695" x="235.234711" y="128.16" style="stroke: #000000; stroke-width: 0.8"/>
      </g>
     </g>
     <g id="text_20">
      <text style="font: 6px 'Arial', sans-serif" transform="translate(236.822367 209.754062) rotate(-90)">cheatham-lab_villa  - TS412</text>
     </g>
    </g>
    <g id="xtick_21">
     <g id="line2d_21">
      <g>
       <use xlink:href="#mf6fa6c9695" x="244.457851" y="128.16" style="stroke: #000000; stroke-width: 0.8"/>
      </g>
     </g>
     <g id="text_21">
      <text style="font: 6px 'Arial', sans-serif" transform="translate(246.010351 217.09) rotate(-90)">GuangzhouRNA-meta - TS417</text>
     </g>
    </g>
    <g id="xtick_22">
     <g id="line2d_22">
      <g>
       <use xlink:href="#mf6fa6c9695" x="253.680992" y="128.16" style="stroke: #000000; stroke-width: 0.8"/>
      </g>
     </g>
     <g id="text_22">
      <text style="font: 6px 'Arial', sans-serif" transform="translate(255.270523 217.420937) rotate(-90)">OpenComplex_Server - TS450</text>
     </g>
    </g>
    <g id="xtick_23">
     <g id="line2d_23">
      <g>
       <use xlink:href="#mf6fa6c9695" x="262.904132" y="128.16" style="stroke: #000000; stroke-width: 0.8"/>
      </g>
     </g>
     <g id="text_23">
      <text style="font: 6px 'Arial', sans-serif" transform="translate(264.456632 175.074062) rotate(-90)">Zheng - TS462</text>
     </g>
    </g>
    <g id="xtick_24">
     <g id="line2d_24">
      <g>
       <use xlink:href="#mf6fa6c9695" x="272.127273" y="128.16" style="stroke: #000000; stroke-width: 0.8"/>
      </g>
     </g>
     <g id="text_24">
      <text style="font: 6px 'Arial', sans-serif" transform="translate(273.679773 177.409375) rotate(-90)">coogs3 - TS466</text>
     </g>
    </g>
    <g id="xtick_25">
     <g id="line2d_25">
      <g>
       <use xlink:href="#mf6fa6c9695" x="281.350413" y="128.16" style="stroke: #000000; stroke-width: 0.8"/>
      </g>
     </g>
     <g id="text_25">
      <text style="font: 6px 'Arial', sans-serif" transform="translate(282.901507 171.738438) rotate(-90)">Vfold - TS481</text>
     </g>
    </g>
    <g id="xtick_26">
     <g id="line2d_26">
      <g>
       <use xlink:href="#mf6fa6c9695" x="290.573554" y="128.16" style="stroke: #000000; stroke-width: 0.8"/>
      </g>
     </g>
     <g id="text_26">
      <text style="font: 6px 'Arial', sans-serif" transform="translate(292.16121 209.425937) rotate(-90)">bussilab_plain_md  - TS485</text>
     </g>
    </g>
    <g id="xtick_27">
     <g id="line2d_27">
      <g>
       <use xlink:href="#mf6fa6c9695" x="299.796694" y="128.16" style="stroke: #000000; stroke-width: 0.8"/>
      </g>
     </g>
     <g id="text_27">
      <text style="font: 6px 'Arial', sans-serif" transform="translate(301.347788 158.174688) rotate(-90)">Baseline</text>
     </g>
    </g>
    <g id="xtick_28">
     <g id="line2d_28">
      <g>
       <use xlink:href="#mf6fa6c9695" x="309.019835" y="128.16" style="stroke: #000000; stroke-width: 0.8"/>
      </g>
     </g>
     <g id="text_28">
      <text style="font: 6px 'Arial', sans-serif" transform="translate(310.570928 181.19125) rotate(-90)">Baseline addIons</text>
     </g>
    </g>
    <g id="xtick_29">
     <g id="line2d_29">
      <g>
       <use xlink:href="#mf6fa6c9695" x="318.242975" y="128.16" style="stroke: #000000; stroke-width: 0.8"/>
      </g>
     </g>
     <g id="text_29">
      <text style="font: 6px 'Arial', sans-serif" transform="translate(319.758913 174.840625) rotate(-90)">Baseline mMg </text>
     </g>
    </g>
    <g id="xtick_30">
     <g id="line2d_30">
      <g>
       <use xlink:href="#mf6fa6c9695" x="327.466116" y="128.16" style="stroke: #000000; stroke-width: 0.8"/>
      </g>
     </g>
     <g id="text_30">
      <text style="font: 6px 'Arial', sans-serif" transform="translate(328.982053 196.190313) rotate(-90)">Baseline mMg addIons</text>
     </g>
    </g>
    <g id="xtick_31">
     <g id="line2d_31">
      <g>
       <use xlink:href="#mf6fa6c9695" x="336.689256" y="128.16" style="stroke: #000000; stroke-width: 0.8"/>
      </g>
     </g>
     <g id="text_31">
      <text style="font: 6px 'Arial', sans-serif" transform="translate(338.205194 171.5125) rotate(-90)">Baseline nMg</text>
     </g>
    </g>
    <g id="xtick_32">
     <g id="line2d_32">
      <g>
       <use xlink:href="#mf6fa6c9695" x="345.912397" y="128.16" style="stroke: #000000; stroke-width: 0.8"/>
      </g>
     </g>
     <g id="text_32">
      <text style="font: 6px 'Arial', sans-serif" transform="translate(347.428334 194.529063) rotate(-90)">Baseline nMg addIons</text>
     </g>
    </g>
    <g id="xtick_33">
     <g id="line2d_33">
      <g>
       <use xlink:href="#mf6fa6c9695" x="355.135537" y="128.16" style="stroke: #000000; stroke-width: 0.8"/>
      </g>
     </g>
     <g id="text_33">
      <text style="font: 6px 'Arial', sans-serif" transform="translate(356.688037 189.839687) rotate(-90)">Cryo-EM model con.</text>
     </g>
    </g>
    <g id="xtick_34">
     <g id="line2d_34">
      <g>
       <use xlink:href="#mf6fa6c9695" x="364.358678" y="128.16" style="stroke: #000000; stroke-width: 0.8"/>
      </g>
     </g>
     <g id="text_34">
      <text style="font: 6px 'Arial', sans-serif" transform="translate(365.911178 176.832812) rotate(-90)">Cryo-EM model</text>
     </g>
    </g>
    <g id="xtick_35">
     <g id="line2d_35">
      <g>
       <use xlink:href="#mf6fa6c9695" x="373.581818" y="128.16" style="stroke: #000000; stroke-width: 0.8"/>
      </g>
     </g>
     <g id="text_35">
      <text style="font: 6px 'Arial', sans-serif" transform="translate(375.097756 200.180313) rotate(-90)">Ind. cryo-EM model con.</text>
     </g>
    </g>
    <g id="xtick_36">
     <g id="line2d_36">
      <g>
       <use xlink:href="#mf6fa6c9695" x="382.804959" y="128.16" style="stroke: #000000; stroke-width: 0.8"/>
      </g>
     </g>
     <g id="text_36">
      <text style="font: 6px 'Arial', sans-serif" transform="translate(384.320896 187.173438) rotate(-90)">Ind. cryo-EM model</text>
     </g>
    </g>
    <g id="text_37">
     <text style="font: 8px 'Arial', sans-serif; text-anchor: middle" x="221.4" y="231.92" transform="rotate(-0 221.4 231.92)">Group</text>
    </g>
   </g>
   <g id="matplotlib.axis_2">
    <g id="ytick_1">
     <g id="line2d_37">
      <defs>
       <path id="mae61c45701" d="M 0 0 
L -3.5 0 
" style="stroke: #000000; stroke-width: 0.8"/>
      </defs>
      <g>
       <use xlink:href="#mae61c45701" x="54" y="128.16" style="stroke: #000000; stroke-width: 0.8"/>
      </g>
     </g>
     <g id="text_38">
      <text style="font: 6px 'Arial', sans-serif; text-anchor: end" x="47" y="130.307344" transform="rotate(-0 47 130.307344)">0</text>
     </g>
    </g>
    <g id="ytick_2">
     <g id="line2d_38">
      <g>
       <use xlink:href="#mae61c45701" x="54" y="103.52" style="stroke: #000000; stroke-width: 0.8"/>
      </g>
     </g>
     <g id="text_39">
      <text style="font: 6px 'Arial', sans-serif; text-anchor: end" x="47" y="105.667344" transform="rotate(-0 47 105.667344)">200</text>
     </g>
    </g>
    <g id="ytick_3">
     <g id="line2d_39">
      <g>
       <use xlink:href="#mae61c45701" x="54" y="78.88" style="stroke: #000000; stroke-width: 0.8"/>
      </g>
     </g>
     <g id="text_40">
      <text style="font: 6px 'Arial', sans-serif; text-anchor: end" x="47" y="81.027344" transform="rotate(-0 47 81.027344)">400</text>
     </g>
    </g>
    <g id="ytick_4">
     <g id="line2d_40">
      <g>
       <use xlink:href="#mae61c45701" x="54" y="54.24" style="stroke: #000000; stroke-width: 0.8"/>
      </g>
     </g>
     <g id="text_41">
      <text style="font: 6px 'Arial', sans-serif; text-anchor: end" x="47" y="56.387344" transform="rotate(-0 47 56.387344)">600</text>
     </g>
    </g>
    <g id="ytick_5">
     <g id="line2d_41">
      <g>
       <use xlink:href="#mae61c45701" x="54" y="29.6" style="stroke: #000000; stroke-width: 0.8"/>
      </g>
     </g>
     <g id="text_42">
      <text style="font: 6px 'Arial', sans-serif; text-anchor: end" x="47" y="31.747344" transform="rotate(-0 47 31.747344)">800</text>
     </g>
    </g>
    <g id="text_43">
     <text style="font: 8px 'Arial', sans-serif; text-anchor: middle" x="31.306563" y="72.72" transform="rotate(-90 31.306563 72.72)">Average ions per frame</text>
    </g>
   </g>
   <g id="patch_147">
    <path d="M 54 128.16 
L 54 17.28 
" style="fill: none; stroke: #000000; stroke-width: 0.8; stroke-linejoin: miter; stroke-linecap: square"/>
   </g>
   <g id="patch_148">
    <path d="M 54 128.16 
L 388.8 128.16 
" style="fill: none; stroke: #000000; stroke-width: 0.8; stroke-linejoin: miter; stroke-linecap: square"/>
   </g>
   <g id="legend_1">
    <g id="patch_149">
     <path d="M 115.615313 11.4699 
L 127.615313 11.4699 
L 127.615313 7.2699 
L 115.615313 7.2699 
z
" style="fill: #8aff00"/>
    </g>
    <g id="text_44">
     <text style="font: 6px 'Arial', sans-serif; text-anchor: start" x="132.415313" y="11.4699" transform="rotate(-0 132.415313 11.4699)">atoms_MG</text>
    </g>
    <g id="patch_150">
     <path d="M 173.754375 11.4699 
L 185.754375 11.4699 
L 185.754375 7.2699 
L 173.754375 7.2699 
z
" style="fill: #ab5cf2"/>
    </g>
    <g id="text_45">
     <text style="font: 6px 'Arial', sans-serif; text-anchor: start" x="190.554375" y="11.4699" transform="rotate(-0 190.554375 11.4699)">atoms_NA</text>
    </g>
    <g id="patch_151">
     <path d="M 230.564063 11.4699 
L 242.564063 11.4699 
L 242.564063 7.2699 
L 230.564063 7.2699 
z
" style="fill: #daa520"/>
    </g>
    <g id="text_46">
     <text style="font: 6px 'Arial', sans-serif; text-anchor: start" x="247.364063" y="11.4699" transform="rotate(-0 247.364063 11.4699)">atoms_CL</text>
    </g>
    <g id="patch_152">
     <path d="M 286.708125 11.4699 
L 298.708125 11.4699 
L 298.708125 7.2699 
L 286.708125 7.2699 
z
" style="fill: #57178f"/>
    </g>
    <g id="text_47">
     <text style="font: 6px 'Arial', sans-serif; text-anchor: start" x="303.508125" y="11.4699" transform="rotate(-0 303.508125 11.4699)">atoms_K</text>
    </g>
   </g>
  </g>
 </g>
 <defs>
  <clipPath id="pe7d4010b39">
   <rect x="54" y="17.28" width="334.8" height="110.88"/>
  </clipPath>
 </defs>
</svg>
